<?xml version="1.0" encoding="UTF-8"?>
<svg id="Layer_2" data-name="Layer 2" xmlns="http://www.w3.org/2000/svg" viewBox="0 0 463.2 512.71">
  <defs>
    <style>
      .cls-1 {
        fill: #d2042d;
      }
    </style>
  </defs>
  <g id="Layer_1-2" data-name="Layer 1">
    <g>
      <path class="cls-1" d="M463.06,365.51c0,37.66,.08,75.33-.08,112.99-.03,5.95-.72,11.98-1.89,17.81-2.06,10.24-10.25,16.81-20.81,16.38-18.79-.77-37.55-2.03-56.32-3.16-20.43-1.23-40.87-2.47-61.29-3.83-28.24-1.88-56.46-3.97-84.7-5.78-24.43-1.56-48.88-2.77-73.32-4.29-28.91-1.8-57.81-3.76-86.71-5.68-15.27-1.01-30.52-2.23-45.8-3.08-17.63-.98-26.88-8.57-30.25-25.93-1.1-5.68-1.54-11.58-1.55-17.38C.23,375.24,.81,306.91,0,238.59c-.32-27.81,9.69-49.87,30.06-67.77,26.88-23.62,57.11-41.74,90.67-54.31,6.18-2.31,10.84-1.47,15.85,3.01,25.94,23.22,52.12,46.17,78.26,69.15,7.12,6.26,15.36,8.31,23.96,3.93,6.61-3.36,13.07-7.37,18.76-12.1,10.89-9.04,21.4-18.56,31.61-28.35,3.98-3.82,7.17-3.85,11.74-1.59,26.06,12.9,52.31,25.41,78.33,38.39,22.44,11.2,44.41,23.34,67.06,34.1,12.42,5.9,17.03,14.67,16.89,27.96-.4,38.16-.14,76.32-.14,114.49Zm-17.72,28.93c-1.89,.57-2.82,.84-3.75,1.14-23.87,7.69-46.62,4.81-68.16-7.67-6.89-3.99-13.31-8.77-19.96-13.18-17.15-11.37-39.19-12.8-59.31,.62-24.08,16.06-50.29,19.59-77.22,7.39-10.07-4.56-19.22-11.14-28.85-16.69-19.1-11-37.81-11.36-56.8,.95-22.03,14.28-45.75,18.01-70.94,8.99-7.38-2.64-10.28-.53-10.3,7.29-.04,14.33-.05,28.66,.05,42.98,.02,2.63,.29,5.37,1.08,7.86,1.3,4.12,4.15,6.65,8.77,6.91,22.77,1.26,45.54,2.57,68.31,3.89,32.58,1.89,65.16,3.79,97.74,5.69,30.24,1.77,60.48,3.57,90.73,5.33,19.28,1.12,38.57,2.16,57.86,3.3,21.26,1.26,42.52,2.56,63.78,3.95,3.66,.24,5.89-.94,6.1-4.74,.37-6.63,.79-13.27,.85-19.91,.13-14.47,.04-28.94,.04-44.11Zm0-90.49h-.02c0-11,0-22,0-32.99,0-3.93-1.55-6.15-5.84-6.38-21.11-1.16-42.2-2.53-63.31-3.7-26.94-1.5-53.89-2.77-80.82-4.33-36.9-2.14-73.78-4.53-110.68-6.69-41.06-2.4-82.13-4.66-123.19-6.98-7.26-.41-11.34,3.12-11.39,10.5-.12,21.16-.08,42.33,.01,63.49,0,1.31,.58,3.28,1.53,3.81,16.5,9.24,33.64,13.71,51.88,5.34,7.39-3.39,14.4-7.59,21.61-11.37,19.12-10.02,39.16-12.16,59.24-4.3,11.97,4.69,23.27,11.31,34.39,17.9,21.48,12.73,42.18,13.77,63.5-.72,13.21-8.98,28.05-14.36,44.53-13.57,15.67,.75,29.89,5.77,42.96,14.28,5.16,3.36,10.14,6.99,15.38,10.22,18,11.12,36.65,12.76,56.12,3.84,3.1-1.42,4.21-3.06,4.16-6.35-.16-10.66-.06-21.33-.06-31.99Z"/>
      <path class="cls-1" d="M230.17,27.86c8.74-6.84,16.97-14.88,26.6-20.54,29.17-17.13,68.15-3.4,74.63,32.86,3.96,22.16-1.57,42.64-18.06,58.61-18.65,18.06-38.14,35.24-57.34,52.73-6.27,5.71-12.74,11.22-19.17,16.74-3.38,2.91-6.72,2.98-10.21-.15-25.94-23.18-52.53-45.68-77.73-69.64-18.9-17.97-24.09-41.01-16.54-66.01,5.62-18.61,19.98-28.04,38.38-31.43,18.64-3.43,34.26,3.33,47.81,15.79,4.15,3.81,8.18,7.76,11.63,11.04Z"/>
    </g>
  </g>
</svg>