<?xml version="1.0" encoding="UTF-8"?>
<svg id="Layer_2" data-name="Layer 2" xmlns="http://www.w3.org/2000/svg" xmlns:xlink="http://www.w3.org/1999/xlink" viewBox="0 0 699.83 684.32">
  <defs>
    <style>
      .cls-1 {
        fill: url(#linear-gradient-2);
      }

      .cls-2 {
        fill: url(#linear-gradient-6);
      }

      .cls-3 {
        fill: url(#linear-gradient-5);
      }

      .cls-4 {
        fill: url(#linear-gradient-3);
      }

      .cls-5 {
        fill: url(#linear-gradient);
      }

      .cls-6 {
        fill: url(#linear-gradient-4);
      }
    </style>
    <linearGradient id="linear-gradient" x1="0" y1="516.44" x2="615.89" y2="516.44" gradientUnits="userSpaceOnUse">
      <stop offset=".16" stop-color="#000"/>
      <stop offset="1" stop-color="#d2042d"/>
    </linearGradient>
    <linearGradient id="linear-gradient-2" x1="146.87" y1="151.14" x2="564.92" y2="151.14" gradientUnits="userSpaceOnUse">
      <stop offset=".32" stop-color="#000"/>
      <stop offset="1" stop-color="#d2042d"/>
    </linearGradient>
    <linearGradient id="linear-gradient-3" x1="171.49" y1="301.39" x2="699.83" y2="301.39" gradientUnits="userSpaceOnUse">
      <stop offset=".58" stop-color="#000"/>
      <stop offset="1" stop-color="#d2042d"/>
    </linearGradient>
    <linearGradient id="linear-gradient-4" x1="547.8" y1="431.4" x2="548.18" y2="431.4" gradientUnits="userSpaceOnUse">
      <stop offset="0" stop-color="#000"/>
      <stop offset="1" stop-color="#d2042d"/>
    </linearGradient>
    <linearGradient id="linear-gradient-5" x1="328.25" y1="625.8" x2="624.82" y2="625.8" xlink:href="#linear-gradient"/>
    <linearGradient id="linear-gradient-6" x1="343.92" y1="35.93" x2="415.79" y2="35.93" xlink:href="#linear-gradient"/>
  </defs>
  <g id="Layer_1-2" data-name="Layer 1">
    <path class="cls-5" d="M615.89,426.08c-.04-.13-13.87,4.52-17.01,5.54-35.32,11.45-83.26,6.13-118.49,1.98-1.87-.22-3.2-.38-4.43-.55-4.48-.59-7.82-1.09-8.58-1.2-6.85-1.04-23.61-3.21-28.94-3.93-15.04-2.02-17.26-2.92-48.02-7.98-14.86-2.45-26.01-4.16-37.53-5.93-22.69-3.48-39.43-5.87-43.04-6.38-15.64-2.22-15.21-2.06-32.37-4.45-16.22-2.27-53-7.5-72.24-7.93-9.41-.21-16.92,.68-19.15,.96-2.68,.34-5.52,.78-8.52,1.38-9.76,1.93-17.26,4.63-21.24,6.2-23.66,9.34-38.71,24.37-43.9,29.92-13.81,14.77-20.77,29.62-23.97,37.59-10.47,26.08-9.1,49.09-7.84,59.59,1.25,10.4,4.78,28.34,16.15,47.46,5.22,8.78,17.06,26.15,38.6,39.97,0,0,24.58,15.76,57.58,18.95,74.46,7.19,140.47-67.41,144.7-72.32-2.77,8.83-7.37,20.96-15.17,34.21-23.9,40.62-59.14,60.07-73.97,67.16-10.2,4.88-43.49,19.58-88.1,16.61-33.55-2.23-58.07-13.43-68.22-18.59-31.83-16.18-50.25-37.87-56.52-45.76-19.3-24.27-26.87-47.66-29.25-55.78-13.76-46.91-1.8-86.2,2.32-98.14,2.82-8.17,11.55-31.35,32.1-54.72,4.49-5.12,26.55-29.6,65.3-45.93,10.09-4.25,19.85-7.34,29.52-9.54,9.33-1.71,21.51-3.53,35.81-4.62,16.9-.76,34.31,.11,53.39,1.14,36.56,1.97,62.39,7.46,95.1,14.41,49.63,10.54,92.35,19.62,144.33,41.83,26.81,11.46,40.48,19.74,67.95,24.45,18.77,3.21,44.71,7.35,75.03-2.47,2.61-.85,8.63-3.05,8.6-3.13Z"/>
    <path class="cls-1" d="M269.16,224.9c62.51,.77,261.5-48.83,260.47-51.79-.07-.2-4.06,.92-12.11,2.81-25.1,5.9-38.14,12.02-83.24,30.03-3.94,1.57-42.18,16.82-76.84,29.77-42.65,15.94-68.44,24.13-86.28,27.88-.06,.01-.12,.03-.18,.04-16.16,3.4-25.77,3.13-35.51,1.71-27.77-4.04-44.33-15.71-48.67-18.92-18.06-13.33-26.9-29.57-30.43-37.01-12.24-25.82-9.61-49.39-8.36-57.43,1.25-8.09,5.94-31.7,25.79-52.69,26.74-28.28,61.6-30.36,71.84-31,10.53-.65,12.2,.72,43.6,5.09,27.65,3.85,54.12,7.53,81.65,8.65,43.38,1.75,75.49-3.43,83.56-4.81,14.46-2.45,35.44-6.14,61.48-16.32,20.73-8.11,37.19-17.42,48.99-24.98-11.71,11.81-29.44,27.39-53.79,41.3-32.95,18.84-61.76,25.33-77.81,28.82-24.78,5.39-55.45,12.36-91.25,6.72-18.95-2.98-38.16-4.33-57-7.93-3.29-.63-12.77-2.49-25.1-1.53-11.25,.87-18.7,3.61-20.6,4.34-9.15,3.49-15.35,8.16-18.04,10.33-4.9,3.97-8.08,7.74-9.42,9.39-4.91,6.09-7.48,11.65-8.45,13.9-2.68,6.22-3.69,11.55-4.13,14.46-.42,2.82-.77,6.66-.55,11.2,.41,8.44,2.58,14.64,3.26,16.49,2.14,5.8,4.75,9.72,6.82,12.8,0,0,4.88,7.25,11.16,13.01,5.45,4.99,21.53,15.34,49.12,15.68Z"/>
    <path class="cls-4" d="M699.79,304.83c-.01,.31-.02,.61-.03,.92-.01,.29-.02,.58-.03,.86-.61,14.2-3.42,26.69-6.7,36.77-.2,.63-.42,1.25-.63,1.87-6.51,18.68-15.63,31.69-20.24,37.72-.18,.24-.37,.48-.56,.72-5.05,6.38-11.94,13.98-20.83,21.38-.28,.24-.56,.47-.84,.69-13.89,11.19-26.93,17.15-33.94,20.28-.03,.01-.07,.03-.1,.04-2.78,1.12-5.64,2.17-8.6,3.13-30.32,9.82-56.26,5.68-75.03,2.47-27.47-4.71-41.14-12.99-67.95-24.45-51.98-22.21-94.7-31.29-144.33-41.83-32.71-6.95-58.54-12.44-95.1-14.41-19.08-1.03-36.49-1.9-53.39-1.14,2.05-.16,4.14-.3,6.27-.42,29.52-1.71,50.4,.93,77.7,4.03,25.97,2.96,40.25,4.35,50.23,5.22,7.4,.64,13.84,1.32,22.28,1.86,9.83,.63,13.71,.62,24.95,1.26,10.88,.62,15.06,1.07,22.5,1.58,14.01,.97,20.67,.85,40.88,1.27,29.06,.61,26.9,1.09,53.23,1.58,21.94,.4,33.14,.59,44.36-.32,18.13-1.46,29.18-2.44,42.99-7.97,9.79-3.92,23.21-9.49,33.93-23.32,8.26-10.66,11.24-21.47,12.33-26.41,2.03-9.21,1.74-17.2,1.04-22.75-.71-5.67-2.62-14.93-8.3-24.85-2.24-3.91-6.09-9.72-12.21-15.47-1.85-1.74-10.46-9.63-24.69-14.77-12.55-4.54-22.97-4.58-36.21-4.52-3.83,.02-6.94,.16-27.57,2.22-21.41,2.14-38.31,4.01-44.97,4.75-22.39,2.49-33.59,3.73-36.46,4.12-13.53,1.8-24.47,3.66-47.57,8-50.67,9.52-95.04,18.78-95.06,18.66,0,0,.02,0,.03-.01,17.84-3.75,43.63-11.94,86.28-27.88,34.66-12.95,72.9-28.2,76.84-29.77,45.1-18.01,58.14-24.13,83.24-30.03,4.25-1,8.27-1.94,12.11-2.81,3.9-.82,7.8-1.66,11.7-2.51,.02,0,.05-.01,.07-.02,9.33-1.83,17.86-3,26.58-3.14,.58,0,1.16,0,1.74,0,.48-.01,.98,0,1.47,0,.63,.01,1.26,.02,1.9,.05,.53,.01,1.06,.03,1.6,.06,.37,.02,.74,.04,1.12,.06,.46,.02,.94,.05,1.41,.09h.05c.48,.03,1.08,.08,1.81,.14,.24,.02,.5,.04,.76,.07,.43,.04,.89,.08,1.38,.14,.58,.06,1.21,.13,1.88,.22,.31,.03,.62,.07,.94,.12,.3,.04,.61,.08,.93,.13,.45,.06,.92,.13,1.39,.2,.3,.05,.6,.09,.91,.14,9.21,1.5,23.19,4.87,38.51,12.57,.53,.26,1.06,.53,1.59,.81,.53,.27,1.07,.55,1.6,.84,2.08,1.12,4.18,2.32,6.29,3.6,2,1.22,4.32,2.7,6.86,4.46,.36,.25,.72,.5,1.08,.76,.28,.2,.56,.4,.85,.61,.29,.21,.59,.43,.89,.64,8.76,6.44,19.53,15.98,29.32,29.44,.33,.45,.66,.9,.98,1.36,.74,1.05,1.47,2.12,2.2,3.21,.1,.18,.22,.35,.34,.53,.39,.59,.77,1.19,1.16,1.8,.48,.75,.95,1.52,1.42,2.29,.74,1.22,1.45,2.44,2.13,3.65,.24,.43,.48,.85,.71,1.27,.23,.42,.46,.84,.68,1.26,.45,.84,.89,1.67,1.3,2.5,.42,.81,.82,1.61,1.21,2.42,.78,1.62,1.52,3.23,2.22,4.83,.31,.71,.61,1.41,.9,2.11,.02,.05,.03,.09,.06,.14,9.97,24.15,10.46,45.44,10.22,54.87Z"/>
    <path class="cls-6" d="M548.18,431.37c-.13,.02-.26,.05-.38,.07"/>
    <path class="cls-3" d="M391.22,569.3c8.29,0,15.19,3.3,20.69,9.9,5.5,6.6,8.25,15.79,8.25,27.55,0,18.79-6.6,35.65-19.8,50.59-13.2,14.94-27.17,22.41-41.89,22.41-9.06,0-16.36-2.96-21.9-8.89-5.54-5.92-8.32-14.01-8.32-24.25,0-17.77,5.08-34.19,15.23-49.26,12.78-18.7,28.69-28.06,47.73-28.06Zm-10.79,9.52c-7.19,0-14.16,5.14-20.88,15.42s-10.09,24.48-10.09,42.59c0,11,2.07,19.68,6.22,26.03,3.05,4.66,7.11,6.98,12.19,6.98,7.11,0,13.58-4.4,19.42-13.2,7.45-11.43,11.17-25.6,11.17-42.53,0-12.7-1.71-21.75-5.14-27.17-3.43-5.42-7.72-8.12-12.89-8.12Zm110.32,2.54c-6.52,10.41-11.02,19.59-13.52,27.55-2.5,7.96-3.75,15.87-3.75,23.74,0,7.28,1.61,18.66,4.82,34.15,18.7-14.22,31.95-27.53,39.74-39.93,7.79-12.4,11.68-23.08,11.68-32.06,0-2.62-.97-5.92-2.92-9.9-2.12-4.23-3.17-7.36-3.17-9.39,0-2.2,.76-4.13,2.29-5.78s3.34-2.48,5.46-2.48c2.79,0,5.03,1.21,6.73,3.62,1.69,2.41,2.54,6.5,2.54,12.25,0,18.03-6.39,35.59-19.17,52.69-15.66,20.99-35.51,37.16-59.54,48.5-.59-3.98-1.78-10.33-3.55-19.04-3.47-17.52-5.21-29.71-5.21-36.56,0-9.06,2.11-17.84,6.35-26.34,4.23-8.51,10.49-15.89,18.79-22.15-14.9,.25-25.56,1.9-31.99,4.95-4.57,2.2-6.86,4.78-6.86,7.74,0,1.19,.59,3.17,1.78,5.97,.76,1.95,1.14,3.6,1.14,4.95s-.57,2.56-1.71,3.62c-1.14,1.06-2.56,1.59-4.25,1.59-2.2,0-4.06-.93-5.59-2.79-1.52-1.86-2.29-4.36-2.29-7.49,0-4.99,1.65-9.5,4.95-13.52,3.3-4.02,9.01-7.17,17.14-9.46s18.87-3.34,32.25-3.17c5.42-2.37,8.84-3.55,10.28-3.55,1.35,0,2.58,.55,3.68,1.65,1.1,1.1,1.65,2.29,1.65,3.55,0,2.62-2.58,5-7.74,7.11Zm122.38,62.84l4.19,5.59c-20.74,19.72-38.51,29.58-53.32,29.58-6.01,0-10.6-2.03-13.77-6.09s-4.76-10.58-4.76-19.55c0-18.11,5.5-36.14,16.5-54.08,12.36-20.4,27.12-30.6,44.31-30.6,6.01,0,10.6,1.5,13.77,4.51,3.17,3.01,4.76,7.13,4.76,12.38,0,5.5-1.9,10.92-5.71,16.25s-10.62,10.88-20.44,16.63c-4.91,2.79-15.4,7.83-31.48,15.11-.76,4.57-1.14,8.93-1.14,13.08,0,6.01,.95,10.2,2.86,12.57,1.9,2.37,4.68,3.55,8.32,3.55s7.28-.97,11.43-2.92c5.59-2.62,13.75-7.95,24.5-16Zm-44.43-18.41c13.63-6.09,23.87-12.65,30.72-19.68,4.65-4.91,6.98-9.78,6.98-14.6,0-3.64-.95-6.54-2.86-8.7s-4.38-3.24-7.43-3.24-6.18,1.19-9.14,3.55c-3.98,3.13-7.32,7.87-10.03,14.22-3.89,9.31-6.65,18.79-8.25,28.44Z"/>
    <circle class="cls-2" cx="379.85" cy="35.93" r="35.93"/>
  </g>
</svg>